{
    "asset" : {
        "generator" : "Khronos glTF Blender I/O v3.3.32",
        "version" : "2.0"
    },
    "scene" : 0,
    "scenes" : [
        {
            "name" : "Scene",
            "nodes" : [
                0
            ]
        }
    ],
    "nodes" : [
        {
            "mesh" : 0,
            "name" : "Notification",
            "rotation" : [
                -0.4093071520328522,
                -0.19904816150665283,
                -0.0805874913930893,
                0.8867655992507935
            ],
            "scale" : [
                1.209977149963379,
                1.2099769115447998,
                1.2099769115447998
            ],
            "translation" : [
                -0.9877606630325317,
                1.1256849765777588,
                2.2194550037384033
            ]
        }
    ],
    "materials" : [
        {
            "doubleSided" : true,
            "name" : "Material.001",
            "pbrMetallicRoughness" : {
                "baseColorFactor" : [
                    0.8549932241439819,
                    0.18116413056850433,
                    0.00030355900526046753,
                    1
                ],
                "metallicFactor" : 0,
                "roughnessFactor" : 0.24345549941062927
            }
        },
        {
            "doubleSided" : true,
            "name" : "Material.007",
            "pbrMetallicRoughness" : {
                "baseColorFactor" : [
                    0.00030350685119628906,
                    0.19120176136493683,
                    0.8549929261207581,
                    1
                ],
                "metallicFactor" : 0,
                "roughnessFactor" : 0.5
            }
        },
        {
            "doubleSided" : true,
            "name" : "Material.022",
            "pbrMetallicRoughness" : {
                "baseColorFactor" : [
                    0.5704634785652161,
                    0.0007180116372182965,
                    0.003755308222025633,
                    1
                ],
                "metallicFactor" : 0,
                "roughnessFactor" : 0.36818182468414307
            }
        },
        {
            "doubleSided" : true,
            "name" : "Material.006",
            "pbrMetallicRoughness" : {
                "baseColorFactor" : [
                    0.800000011920929,
                    0.800000011920929,
                    0.800000011920929,
                    1
                ],
                "metallicFactor" : 0,
                "roughnessFactor" : 0.41369110345840454
            }
        }
    ],
    "meshes" : [
        {
            "name" : "Sphere",
            "primitives" : [
                {
                    "attributes" : {
                        "POSITION" : 0,
                        "NORMAL" : 1,
                        "TEXCOORD_0" : 2
                    },
                    "indices" : 3,
                    "material" : 0
                },
                {
                    "attributes" : {
                        "POSITION" : 4,
                        "NORMAL" : 5,
                        "TEXCOORD_0" : 6
                    },
                    "indices" : 7,
                    "material" : 1
                },
                {
                    "attributes" : {
                        "POSITION" : 8,
                        "NORMAL" : 9,
                        "TEXCOORD_0" : 10
                    },
                    "indices" : 11,
                    "material" : 2
                },
                {
                    "attributes" : {
                        "POSITION" : 12,
                        "NORMAL" : 13,
                        "TEXCOORD_0" : 14
                    },
                    "indices" : 15,
                    "material" : 3
                }
            ]
        }
    ],
    "accessors" : [
        {
            "bufferView" : 0,
            "componentType" : 5126,
            "count" : 848,
            "max" : [
                1.298065185546875,
                1.0023964643478394,
                1.3530192375183105
            ],
            "min" : [
                -1.298065185546875,
                -1.1866942644119263,
                -1.3530199527740479
            ],
            "type" : "VEC3"
        },
        {
            "bufferView" : 1,
            "componentType" : 5126,
            "count" : 848,
            "type" : "VEC3"
        },
        {
            "bufferView" : 2,
            "componentType" : 5126,
            "count" : 848,
            "type" : "VEC2"
        },
        {
            "bufferView" : 3,
            "componentType" : 5123,
            "count" : 4848,
            "type" : "SCALAR"
        },
        {
            "bufferView" : 4,
            "componentType" : 5126,
            "count" : 4746,
            "max" : [
                1.2031019926071167,
                1.4596614837646484,
                1.361297607421875
            ],
            "min" : [
                -1.094983696937561,
                -1.5423284769058228,
                -1.110796332359314
            ],
            "type" : "VEC3"
        },
        {
            "bufferView" : 5,
            "componentType" : 5126,
            "count" : 4746,
            "type" : "VEC3"
        },
        {
            "bufferView" : 6,
            "componentType" : 5126,
            "count" : 4746,
            "type" : "VEC2"
        },
        {
            "bufferView" : 7,
            "componentType" : 5123,
            "count" : 10152,
            "type" : "SCALAR"
        },
        {
            "bufferView" : 8,
            "componentType" : 5126,
            "count" : 2286,
            "max" : [
                1.3279050588607788,
                1.0242407321929932,
                0.8515380024909973
            ],
            "min" : [
                0.6322044134140015,
                0.24235236644744873,
                0.2593056857585907
            ],
            "type" : "VEC3"
        },
        {
            "bufferView" : 9,
            "componentType" : 5126,
            "count" : 2286,
            "type" : "VEC3"
        },
        {
            "bufferView" : 10,
            "componentType" : 5126,
            "count" : 2286,
            "type" : "VEC2"
        },
        {
            "bufferView" : 11,
            "componentType" : 5123,
            "count" : 11136,
            "type" : "SCALAR"
        },
        {
            "bufferView" : 12,
            "componentType" : 5126,
            "count" : 2203,
            "max" : [
                1.3453609943389893,
                1.02601158618927,
                0.8737635612487793
            ],
            "min" : [
                0.6322044134140015,
                0.24235236644744873,
                0.2593056857585907
            ],
            "type" : "VEC3"
        },
        {
            "bufferView" : 13,
            "componentType" : 5126,
            "count" : 2203,
            "type" : "VEC3"
        },
        {
            "bufferView" : 14,
            "componentType" : 5126,
            "count" : 2203,
            "type" : "VEC2"
        },
        {
            "bufferView" : 15,
            "componentType" : 5123,
            "count" : 6924,
            "type" : "SCALAR"
        }
    ],
    "bufferViews" : [
        {
            "buffer" : 0,
            "byteLength" : 10176,
            "byteOffset" : 0,
            "target" : 34962
        },
        {
            "buffer" : 0,
            "byteLength" : 10176,
            "byteOffset" : 10176,
            "target" : 34962
        },
        {
            "buffer" : 0,
            "byteLength" : 6784,
            "byteOffset" : 20352,
            "target" : 34962
        },
        {
            "buffer" : 0,
            "byteLength" : 9696,
            "byteOffset" : 27136,
            "target" : 34963
        },
        {
            "buffer" : 0,
            "byteLength" : 56952,
            "byteOffset" : 36832,
            "target" : 34962
        },
        {
            "buffer" : 0,
            "byteLength" : 56952,
            "byteOffset" : 93784,
            "target" : 34962
        },
        {
            "buffer" : 0,
            "byteLength" : 37968,
            "byteOffset" : 150736,
            "target" : 34962
        },
        {
            "buffer" : 0,
            "byteLength" : 20304,
            "byteOffset" : 188704,
            "target" : 34963
        },
        {
            "buffer" : 0,
            "byteLength" : 27432,
            "byteOffset" : 209008,
            "target" : 34962
        },
        {
            "buffer" : 0,
            "byteLength" : 27432,
            "byteOffset" : 236440,
            "target" : 34962
        },
        {
            "buffer" : 0,
            "byteLength" : 18288,
            "byteOffset" : 263872,
            "target" : 34962
        },
        {
            "buffer" : 0,
            "byteLength" : 22272,
            "byteOffset" : 282160,
            "target" : 34963
        },
        {
            "buffer" : 0,
            "byteLength" : 26436,
            "byteOffset" : 304432,
            "target" : 34962
        },
        {
            "buffer" : 0,
            "byteLength" : 26436,
            "byteOffset" : 330868,
            "target" : 34962
        },
        {
            "buffer" : 0,
            "byteLength" : 17624,
            "byteOffset" : 357304,
            "target" : 34962
        },
        {
            "buffer" : 0,
            "byteLength" : 13848,
            "byteOffset" : 374928,
            "target" : 34963
        }
    ],
    "buffers" : [
        {
            "byteLength" : 388776,
            "uri" : "data:application/octet-stream;base64,"
        }
    ]
}
